<svg xmlns="http://www.w3.org/2000/svg" viewBox="0 0 1200 1200">
      <rect width="1200" height="1200" rx="80" fill="#FFFFFF"/>
      <g transform="translate(300,50) scale(1.0)">
        
    
    <g transform="translate(55,45)">
      <!-- stylized S -->
      <path d="M290 40
               H135
               C72 40 30 82 30 140
               C30 199 73 235 132 235
               H214
               L174 281
               H112
               C51 281 8 322 8 381
               C8 438 50 475 111 475
               H246
               L300 415
               H125
               C99 415 82 401 82 380
               C82 359 99 345 126 345
               H215
               L324 220
               H143
               C117 220 100 206 100 184
               C100 163 117 149 144 149
               H238 Z"
            fill="#FFFFFF"/>
      <!-- stylized 1 -->
      <path d="M330 72 L456 16 V470 H382 V139 L330 161 Z" fill="#D4A017"/>
      <!-- roof -->
      <path d="M138 356 L261 250 L383 356 L363 378 L261 291 L158 378 Z" fill="#FFFFFF"/>
      <path d="M187 371 L261 307 L336 371 L320 389 L261 339 L203 389 Z" fill="#071B35"/>
      <!-- window -->
      <g fill="#D4A017">
        <rect x="239" y="366" width="28" height="28"/>
        <rect x="274" y="366" width="28" height="28"/>
        <rect x="239" y="401" width="28" height="28"/>
        <rect x="274" y="401" width="28" height="28"/>
      </g>
    </g>
    
      </g>
      <text x="600" y="750" text-anchor="middle"
            font-family="Georgia, 'Times New Roman', serif" font-size="132" letter-spacing="4">
        <tspan fill="#071B35">SOURCE </tspan><tspan fill="#D4A017">ONE</tspan>
      </text>
      <line x1="160" y1="805" x2="355" y2="805" stroke="#D4A017" stroke-width="10"/>
      <line x1="845" y1="805" x2="1040" y2="805" stroke="#D4A017" stroke-width="10"/>
      <text x="600" y="840" text-anchor="middle"
            font-family="Arial, Helvetica, sans-serif" font-size="70" letter-spacing="26"
            fill="#071B35">HOME LOANS</text>
      <text x="600" y="970" text-anchor="middle"
            font-family="Arial, Helvetica, sans-serif" font-size="40" letter-spacing="9"
            fill="#D4A017">YOUR GOAL. OUR FOCUS.</text>
    </svg>